<?xml version="1.0" standalone="no"?>
<!DOCTYPE svg PUBLIC "-//W3C//DTD SVG 20010904//EN"
 "http://www.w3.org/TR/2001/REC-SVG-20010904/DTD/svg10.dtd">
<svg version="1.0" xmlns="http://www.w3.org/2000/svg"
 width="295.000000pt" height="171.000000pt" viewBox="0 0 295.000000 171.000000"
 preserveAspectRatio="xMidYMid meet">

<g transform="translate(0.000000,171.000000) scale(0.100000,-0.100000)"
fill="#000000" stroke="none">
<path d="M1165 1077 c-64 -36 -96 -102 -144 -295 -50 -206 -54 -285 -16 -331
49 -57 61 -54 194 46 l84 63 143 0 142 0 90 -70 c50 -38 101 -72 115 -75 58
-15 100 44 98 139 -1 88 -81 394 -118 454 -51 84 -160 119 -220 72 -21 -16
-41 -20 -108 -20 -67 0 -87 4 -108 20 -35 27 -101 26 -152 -3z m295 -82 c10
-12 10 -21 2 -40 -19 -40 -82 -29 -82 15 0 37 55 55 80 25z m224 -27 c14 -23
-3 -52 -33 -56 -42 -6 -67 38 -39 66 17 17 58 11 72 -10z m-412 -45 c22 -20
23 -51 1 -75 -18 -20 -33 -24 -33 -8 0 6 -9 20 -20 32 -14 16 -17 25 -9 34 6
7 8 18 4 24 -10 17 37 12 57 -7z m338 -43 c0 -37 -61 -47 -75 -12 -9 25 31 55
56 42 10 -6 19 -19 19 -30z m65 -46 c20 -21 16 -43 -12 -61 -19 -13 -24 -12
-42 6 -25 25 -26 35 -5 55 20 20 38 20 59 0z m-323 -71 c2 -19 10 -29 26 -33
30 -7 30 -23 0 -30 -15 -4 -25 -16 -29 -35 -4 -17 -7 -22 -8 -12 0 9 -6 17
-12 17 -5 0 -8 4 -5 9 3 5 -1 12 -10 15 -8 3 -12 11 -8 17 4 8 -1 9 -16 4 -15
-5 -20 -4 -16 4 4 6 14 11 22 11 8 0 20 14 25 30 14 37 27 39 31 3z m228 -8
c6 -8 10 -26 8 -42 -2 -22 -8 -28 -28 -28 -14 -1 -30 4 -37 10 -9 10 -18 47
-14 66 2 12 60 7 71 -6z"/>
<path d="M510 996 l-215 -83 -3 -48 c-2 -26 1 -52 6 -57 4 -4 106 -46 225 -92
l217 -84 0 57 0 58 -165 52 c-91 29 -165 56 -165 60 0 4 74 31 165 60 l165 52
0 54 c0 30 -3 55 -7 55 -5 -1 -105 -38 -223 -84z"/>
<path d="M2110 1028 l0 -53 143 -49 c78 -27 153 -53 167 -59 22 -8 4 -16 -140
-66 l-165 -56 -3 -58 -3 -58 33 14 c18 8 120 47 226 87 l193 74 -3 55 -3 56
-215 82 c-118 46 -218 83 -222 83 -5 0 -8 -24 -8 -52z"/>
</g>
</svg>
